<svg xmlns="http://www.w3.org/2000/svg" viewBox="0 0 1045 500.25"><defs><style>.cls-1,.cls-15,.cls-16,.cls-24{fill:none}.cls-2{fill:#c2eaf3}.cls-3{fill:#a9c6ce;opacity:.5}.cls-4{fill:#fd0}.cls-5{fill:#ea7200}.cls-6{fill:#00953a}.cls-7{fill:#fff}.cls-8{fill:#f8b517}.cls-9{fill:#3fb773}.cls-10{fill:#425c60}.cls-11{fill:#b05600}.cls-12,.cls-14{fill:#615c58}.cls-13,.cls-17{fill:#adaaa7}.cls-13,.cls-14{fill-rule:evenodd}.cls-15,.cls-16{stroke:#fd0}.cls-15,.cls-16,.cls-24{stroke-miterlimit:10}.cls-16{stroke-width:.97px}.cls-18{fill:#e2e3e4}.cls-19{fill:#b93f40}.cls-20{fill:#ff4338}.cls-21{fill:#de9526}.cls-22{clip-path:url(#clip-path)}.cls-23{fill:#849295}.cls-24{stroke:#fdfffe;stroke-width:6px}.cls-25{fill:#00c1de}.cls-26{fill:#3e3935}</style><clipPath id="clip-path"><path class="cls-1" d="M635 176a45.56 45.56 0 0 0-91.13-.06c0 1.48.09 2.87.09 4.31V388h91V176z"/></clipPath></defs><title>grab_1</title><g id="Layer_2" data-name="Layer 2"><g id="grab-berbagi"><g id="bg"><path id="sky" class="cls-2" d="M0 0h1045v391H0z"/><path id="city" class="cls-3" d="M1045 393.28V226.35h-13.55v-40.46h-10.12v-19.37H974.4v19.37h-10.12v75.53H949.1v-37.45h-53.83v95.54h-8.28v-49.7l-26.22-22.2v-48.17h-22.08v94.61h-19.78v-35.86h-15.65v-44.55h-38.18v35.66h-27.97v27.53l-30.57-13.26v-28.56h-38.96v63.03h-26.62v-25.33h-6.55v-50.8l-26.33 13.1v37.7h-14.56V237.9h-20.69v-24.18h-39.21v34.56l-38.37-16.64v-35.85h-48.9v79.1h-33.4V243.1h-8.23v-63.75l-33.04 16.44v47.31h-18.27v-43.69h-57.13v24.77h-15.97v-40.47h-10.66v-19.37h-49.38v19.37h-10.64v75.53h-15.98V221.8h-56.64v95.54h-8.72v-49.71l-27.59-22.19v-48.17H77.46v94.61H56.65v-35.87H40.19v-44.54H0v181.81h1045z"/></g><g id="ondel"><g id="ondel-man"><path class="cls-4" d="M736.95 288.38s41.64 3.08 45.54-1.33-45.54 1.33-45.54 1.33m44.86-25.86c-1.8-3.68-45.48 14.62-50.41 18.34 0 0 52.21-14.66 50.41-18.34m-13.35-19.36c-1.87-.79-40.48 23.47-40.48 23.47 47-20.87 40.48-23.47 40.48-23.47m-14.81-11.88C749.29 228 727 257.76 727 257.76s31-23.15 26.66-26.48m-64.01 57.23s-27.53.37-30.13-4.27 30.13 4.27 30.13 4.27m-29.8-28.65c1.17-3.55 30.16 17.5 33.44 21.53 0 0-34.61-18-33.44-21.53m8.74-18.42c1.23-.66 26.89 26 26.89 26-31.17-23.82-26.89-26-26.89-26m9.74-10.87c2.87-3 17.76 28.09 17.76 28.09s-20.63-25.06-17.76-28.09m64.45 157.21s5.3-56.9-15.37-59.45-36.85-.51-39.23 1.53-4.77 57.92-4.77 57.92z"/><path class="cls-5" d="M708.76 332.15s-5.93 11.34-5 40H706s1.1-38.18 5.7-40-2.91 0-2.91 0m18.09 55.63s1.86-29.9 0-33.72-1.88-5.86-1.88-5.86-2.14 37.63-3.32 39.58zm-36.32 0v-37.54s-3.71 5.26-2.92 37.54z"/><path class="cls-6" d="M683.93 279.06c4.29-4.12 2.86-17.86 8.57-19.23 11.43-1.37 21.43 1.37 32.87 0 7.14-1.37 11.43 12.36 10 22a9.08 9.08 0 0 1 3.56-2.42c3.74 19.86 2.15 40.88 2.15 40.88-19.69 13.63-39.69 13.84-60 0 0 0-1.56-20.68 2.06-40.4a3 3 0 0 0 .79-.81"/><path d="M711.08 244.73c16.88 0 24.51 16.87 27.86 34.66a9.06 9.06 0 0 0-3.56 2.42c1.43-9.62-2.86-23.35-10-22-11.43 1.37-21.44-1.37-32.87 0-5.71 1.37-4.29 15.11-8.57 19.23a3 3 0 0 1-.79.81c3.3-18 10.91-35.15 27.95-35.15"/><path class="cls-4" d="M728.85 294s-13.93-.86-13.22 0 7.32 8.93 13.22 0m-17.77 4.64s-4.46 3.43-5.89-1.37.89-13.56.89-13.56-7.14 13.73-2.5 17 6.25 3.26 7.5-2.06m-14.44-2.73s-10.18 0-9.65 1 6.43 3.43 9.65-1m30.16-23.38s-3.36-4.63-7.75-1.72 2.57-11 7.75 1.72m-25.9 0s-3-3.78-6.61-1.2 1.9-10.91 6.61 1.2"/><path class="cls-7" d="M716.08 276.32a3.93 3.93 0 1 0 3.93-3.78 3.86 3.86 0 0 0-3.93 3.78"/><path class="cls-8" d="M717.66 312.06s-17-1-17.67-.39-3.31 5.74 4.66 5.4 13.15.86 13-5"/><path class="cls-7" d="M692.15 277a3.92 3.92 0 1 0 3.92-3.77 3.84 3.84 0 0 0-3.92 3.77"/><path class="cls-4" d="M720.1 309.83c-2.49-1.26-4.5-4-11.77-1.25 0 0-5.67-2.09-9.54 1.67 0 0-5.18 1.75 9.53 2.4 15.35.68 12.42-2.49 11.78-2.81"/><path class="cls-9" d="M683.13 279.87s-1.66-5.27-2.4-1.32-.48 13.91.64 14.77 1.75-13.45 1.75-13.45m54.39 1.94s.9-12.88 4.83-1.72-4.48 18.49-4.83 14.91 0-13.19 0-13.19"/><path class="cls-10" d="M707.25 304.82s-8.62-1.84-12 2.56-4.59-2.94-4.59-2.94-3.74 8.49 5.36 5.62 8.15-3.23 11.19-2.68c0 0 9.37-3.12 15 1.61s7.56-4.31 3.66-5.29c0 0 1.95 3.62-1.95 2.78s-8.59-5.9-16.69-1.67"/><path class="cls-6" d="M696.23 361.67a47.61 47.61 0 0 1-5.67 3.29l-.49 13.21s2.45-1.26 6.15-3.58c-.51-4.14-.07-8.77 0-12.92"/><path class="cls-9" d="M730.09 335.49a50 50 0 0 0-8.44-2.72c-4.18 7.15-13.16 20.65-25.43 28.91-.08 4.15-.51 8.78 0 12.92 10.28-6.44 30.19-21 33.88-39.11"/><path class="cls-6" d="M724.28 328s-.91 1.86-2.62 4.79a50 50 0 0 1 8.44 2.72 29 29 0 0 0 .59-6.21s-3.7-1.65-6.41-1.29"/></g><g id="ondel-woman"><path class="cls-5" d="M777.91 268.58s10-7 10-5.3-10 5.3-10 5.3m7.49 4.2s11.46-4.23 11.06-2.57-11.06 2.57-11.06 2.57m1.39 6.96s11.74-3.39 11.21-1.74-11.21 1.75-11.21 1.75"/><path d="M750.18 290.45s-20.47 4.95-9.9 23 12.22 0 12.22 0 5.36-20.31-2.32-23"/><path class="cls-9" d="M780.74 267.81s-7.22-4.5-11.21-9.36c0 0-6.55 7.2-11.67 9.36s-12.52 20.17-8.45 24.94l4.07 4.76z"/><path class="cls-5" d="M738.73 388.23s-5.3-59.18 15.37-61.83 36.83-.53 39.22 1.59 4.77 60.24 4.77 60.24z"/><path class="cls-4" d="M772.74 330.38s5.93 11.79 5 41.6h-2.18s-1.09-39.71-5.7-41.65 2.91 0 2.91 0m-18.14 57.9s-1.85-31.09 0-35.06 1.85-6.09 1.85-6.09 2.14 39.13 3.32 41.16zm36.3 0v-39s3.71 5.47 2.91 39z"/><path class="cls-7" d="M762.42 328s9.34 32.32 6.77 48.4H763s-6.85-50.24-7.87-50.12 6.18-.63 6.18-.63zm21.88-2.26s7.23 33.34 5.11 51.54H783s-3.28-51.85-4.63-51.54 4.12-.22 5.88 0"/><path class="cls-4" d="M793.69 292c-3.07-3.07-2-13.31-6.14-14.33-8.19-1-15.36 1-23.55 0-5.12-1-8.19 9.21-7.17 16.38a6.52 6.52 0 0 0-2.55-1.81 139.73 139.73 0 0 0-1.54 30.47c14.11 10.16 28.44 10.32 43 0a140.35 140.35 0 0 0-1.48-30.11 2.22 2.22 0 0 1-.57-.6"/><path d="M774.24 266.39c-12.09 0-17.56 12.57-20 25.84a6.48 6.48 0 0 1 2.55 1.81c-1-7.17 2-17.4 7.16-16.38 8.19 1 15.36-1 23.55 0 4.1 1 3.07 11.26 6.14 14.33a2.22 2.22 0 0 0 .57.6c-2.37-13.4-7.82-26.2-20-26.2"/><path class="cls-5" d="M761.51 303.14s10-.64 9.47 0-5.25 6.65-9.47 0m12.73 3.43s3.2 2.56 4.22-1-.64-10.11-.64-10.11 5.12 10.23 1.79 12.67-4.48 2.43-5.37-1.53m10.35-2.05s7.29 0 6.91.77-4.61 2.56-6.91-.77M763 287.12s2.41-3.46 5.55-1.28-1.84-8.19-5.55 1.28m18.54 0s2.18-2.81 4.74-.9-1.36-8.13-4.74.9"/><path class="cls-7" d="M770.66 289.94a2.82 2.82 0 1 1-2.82-2.81 2.82 2.82 0 0 1 2.82 2.81"/><path class="cls-11" d="M769.53 316.58s12.17-.73 12.66-.29 2.38 4.28-3.34 4-9.42.64-9.32-3.73"/><path class="cls-7" d="M787.81 290.45a2.81 2.81 0 1 1-2.81-2.81 2.81 2.81 0 0 1 2.81 2.81"/><path class="cls-5" d="M765.22 313.36a2.46 2.46 0 0 0 2.56 1.56c2-.13 5.42-5.05 8.44.31 0 0 2.05-3.83 6.82 0l1.57-1.21s2.14 2.51-8.4 3c-11 .5-11-3.66-11-3.66m29.05-20.77s1.19-3.93 1.72-1 .34 10.37-.46 11-1.25-10-1.25-10"/><path d="M756 293.24s.33 10.39 3.14 8.6-.64-1.66-.64-1.66 1.19-.9 1.74-.26a1.73 1.73 0 0 1-1.1 2.72c-1.66.48-4.86-3-4.86-3l.76-7zm37-2.12s2.13 10 1.22 10.67-1.85-1.28-1.85-1.28 0 2.63 1.37 2.09 1.25-1.07 1.25-1.07l-.76-9z"/><path class="cls-5" d="M755.3 294s-.64-9.6-3.46-1.28 3.21 13.78 3.46 11.12 0-9.83 0-9.83M751.5 282s-12-4.65-11.65-3 11.65 3 11.65 3m2.82-6.77s-10.9-6.79-10.9-5.08 10.9 5.08 10.9 5.08m3.62-5.35s-8.58-9.56-9.05-7.91 9.05 7.91 9.05 7.91"/><path class="cls-4" d="M762.14 376.13l7.27-.79.64 8.08s-5.67 1.85-6.79 0-1.12-7.29-1.12-7.29m20.17-.98s7.34 1.59 7.36 0c0 0 1.07 8.26 0 9s-7.38 0-7.38 0z"/></g></g><g id="buildings-and-trees"><g id="monas"><path class="cls-12" d="M389 355.32V362s16.75 12.81 16.75 26.4h18.94v-33.08z"/><path class="cls-4" d="M424.66 355.32v33.06h74.66s7.39-26.14 19.71-26.14v-6.92z"/><path class="cls-12" d="M452.14 181.25h-6l-5.42 174.07h8.53c-.22-57.89 1.72-116.4 2.86-174.07"/><path class="cls-4" d="M463.42 181.25h-11.28c-1.14 57.67-3.07 116.18-2.86 174.07h21z"/><path class="cls-12" d="M433.25 175.77v3.44s9.34 6.62 9.34 13.64h9.72c-.06-5.69-.06-11.39-.06-17.08z"/><path class="cls-4" d="M452.25 175.77c0 5.69 0 11.39.06 17.08h15.28s3.42-12.61 7.8-13.5v-3.58z"/><path class="cls-4" d="M464.04 197l-18.35.15.11-4.38 18.08.08.16 4.15z"/><path class="cls-5" d="M446.83 147.51c.67.28.47 4.1.4 4.76a8.59 8.59 0 0 1-1.06 3.3c-1.55 2.82-4 5.33-4.54 8.61a9.35 9.35 0 0 0 2.69 8.22 14.09 14.09 0 0 0 9.23 3.49c3 0 6.22-.27 8.75-2a14.18 14.18 0 0 0 4.36-4.89 16.61 16.61 0 0 0 1.52-8.28 16.34 16.34 0 0 0-1.42-6.16 11.54 11.54 0 0 0-4.09-5.08c.69.49 0 3-.26 3.63a4.57 4.57 0 0 1-2.84 2.9c1.23-2.59.82-5.11 0-7.76-1.3-4.15-3.92-7.82-8.5-8.56 4.46 3.18 4.52 11.7-.19 14.35.34-4.72-4.05-6.53-4.05-6.53z"/><path class="cls-6" d="M459.83 158.33c-.42.17-.3 2.54-.25 2.94a5.34 5.34 0 0 0 .66 2c1 1.75 2.46 3.3 2.81 5.33a5.79 5.79 0 0 1-1.67 5.08 8.7 8.7 0 0 1-5.71 2.16 9.27 9.27 0 0 1-5.41-1.24 8.73 8.73 0 0 1-2.7-3 10.24 10.24 0 0 1-.94-5.12 10.06 10.06 0 0 1 .88-3.81 7.14 7.14 0 0 1 2.53-3.14c-.43.3 0 1.84.16 2.25a2.83 2.83 0 0 0 1.76 1.8 6.26 6.26 0 0 1 0-4.8c.81-2.57 2.42-4.84 5.26-5.29-2.76 2-2.8 7.24.11 8.88a4.2 4.2 0 0 1 2.51-4.04z"/><path class="cls-4" d="M452 165.64c.24.1.17 1.48.15 1.72a3.15 3.15 0 0 1-.38 1.19c-.56 1-1.44 1.92-1.64 3.11a3.38 3.38 0 0 0 1 3 5.09 5.09 0 0 0 3.33 1.26 5.42 5.42 0 0 0 3.16-.73 5.13 5.13 0 0 0 1.57-1.76 6 6 0 0 0 .55-3 5.92 5.92 0 0 0-.51-2.22 4.21 4.21 0 0 0-1.48-1.83c.25.18 0 1.07-.09 1.31a1.65 1.65 0 0 1-1 1 3.65 3.65 0 0 0 0-2.8 4 4 0 0 0-3.07-3.09c1.61 1.15 1.63 4.22-.07 5.18a2.45 2.45 0 0 0-1.52-2.34z"/></g><g id="twopeople"><path class="cls-13" d="M328.22 388.17v-99.94h-43.7v98.94m-23-.5v-7c0-30.17 0-60.35-.05-90.53v-10.86c0-3.92.8-7.12 3.53-9.95a53.36 53.36 0 0 0 4.37-5.46c3-4 5.76-8.43 11.8-6.48 0-7.39-.17-14 0-20.55.33-10.1 1.08-20.18 1.31-30.28.07-3.15-.77-6.36-1.48-9.47a58.43 58.43 0 0 0-2.68-8.95c-1.69-4.17-3.81-8.17-5.6-12.3-3.29-7.59-6.25-15.33-9.79-22.8-1.51-3.18-4.13-5.82-7-9.72l7.79-3.5c.83 4.7 2.75 7.57 8.59 4.87-6.12 4.29-3.88 8.59-1.37 12.94q6.39 11.07 12.74 22.16l1.87-.64c-.16-1.46.13-3.21-.57-4.33-2.21-3.54 0-6.56 1.4-9.16.62-1.16 4.59-1.63 6.34-.85 3.89 1.76 4.6 7.07 2.25 10.85-1.38 2.21-1.77 5.28 1.34 5.48 4.8.31 8.42 2.23 12 5 .87.68 2.46.42 4 .63-4.27-7.3-8.05-14.42-12.5-21.1-1.89-2.83-5.18-4.72-7.82-7l6-2.95 3.09 2.67 2.57-4.34c-1.27 12.79 7.75 18.35 13.76 27 .9-3.33 1.52-5.17 1.88-7.05.86-4.48 3.65-5.52 7.63-4.37a7 7 0 0 1 4.46 9c-2.69 6.71-2.5 6.32 4.06 9.54 3.15 1.55 5.44 4.87 8.72 8l-.14-2.41c1.79-.67 3.19-1.29 4.65-1.7a3.2 3.2 0 0 1 1.84.28c1.13.43 2.73.69 3.21 1.55 2 3.47 8 5.12 4.61 11.2-1.15 2-.65 5.26-.22 7.83.64 3.88-1.53 5.32-4.54 5.76-3.5.51-3.37-2.23-3.46-4.65-.12-3-.53-5.82-4.31-6.45-.45-.07-1-.78-1.14-1.3-1.83-5.22-5.88-7.53-11-8.5-2.48 3.37-2.49 6.82-.46 10.48 3.41 6.15 3.81 12.87 3.75 19.72 0 1.58 1.27 3.22 2.09 4.76 1.24 2.3 2.59 4.53 4.16 7.24l-5.82 1.8-1.89 15.92c7.8-2.41 10.65 2.33 14 7.49a31.75 31.75 0 0 1 5.51 18.57q0 4.29-.07 8.57c-.13 25.12.16 50.24.15 75.36v26m-54.72-200c.75 16 8 30.55 8.93 46.24a2.23 2.23 0 0 0 1.14-1.47c2.22-11.43 4.8-22.81 6.38-34.33.45-3.28-1.26-7.71-3.54-10.19-1.3-1.41-5.73.09-8.75.2a36.59 36.59 0 0 1-4.21-.43zm2.81 63.31c.22-13.07-6-23.75-9-35.28l-1.22.11-3.16 35.17zm25.56 0v-14l-10.84-1.43v15.51z"/><circle class="cls-7" cx="324.22" cy="172.65" r="2.15"/><circle class="cls-7" cx="321.77" cy="176.77" r="1.34"/><circle class="cls-7" cx="289.22" cy="166.65" r="2.15"/><circle class="cls-7" cx="286.77" cy="170.77" r="1.34"/><path class="cls-14" d="M331.81 203.18s-1.06 6.15-5.44 6.65c0 0-1.63 1.5 1.71 1.25a6.11 6.11 0 0 0 5.13-3.84c.21-.74-1.01-3.62-1.4-4.06z"/><path class="cls-12" d="M335.69 213.49s-12.82 9.39-13.74 11.3a7.64 7.64 0 0 1-1.72 2.54s15-10.21 16.18-10.35z"/><circle class="cls-4" cx="351.22" cy="194.65" r="2.15"/><circle class="cls-9" cx="346.22" cy="193.65" r="2.15"/><circle class="cls-4" cx="345.22" cy="199.65" r="2.15"/><circle class="cls-6" cx="351.22" cy="200.65" r="2.15"/><circle class="cls-9" cx="357.22" cy="197.65" r="2.15"/><path class="cls-14" d="M336.81 227.18s-1.06 6.15-5.44 6.65c0 0-1.63 1.5 1.71 1.25a6.11 6.11 0 0 0 5.13-3.84c.21-.74-1.01-3.62-1.4-4.06z"/><path class="cls-4" d="M261 280h94v9h-94zm67 9h9v99h-9zm-67 0h10v99h-10z"/><path class="cls-12" d="M291.13 217.31s-5.67 14.85-5.4 16.95a7.64 7.64 0 0 1-.07 3.07s6.43-15.71 7.3-16.45l1.22-.11zm6.01 13.13s3.64 5.58 4.42 6a3.19 3.19 0 0 1 1 .78s-3.93-6.53-4-7zm-14.6-24.84s18.73 2.53 19.93 1.55 1.33 5.38 1.33 5.38-21.48-.14-21.43-1.42.17-5.51.17-5.51z"/><path class="cls-15" d="M272.51 174.26s4 2.58 7.36-2.15"/><path class="cls-16" d="M308.51 179.26s3.75 2.58 6.93-2.15"/><path class="cls-12" d="M335.61 256.04L293.67 280h-7.59l17.09-23.96m-22.15.39l9.23-.43-16.92 24H264"/></g><g id="jakarta_history_museum" data-name="jakarta history museum"><circle class="cls-6" cx="147.66" cy="292.76" r="8.94"/><path class="cls-17" d="M134.85 307.15l6.45-8.15h12.9l6.45 8.14"/><path class="cls-17" transform="rotate(-87.31 147.697 320.97)" d="M134.03 312.07h27.35v17.8h-27.35z"/><path class="cls-12" d="M23 340h245v48H23z"/><path class="cls-5" d="M52.11 325h195.31l29.42 15H13.93l38.18-15z"/><path class="cls-4" d="M63.34 318.34L58.23 327H59v10h9v-10h.45l-5.11-8.66zm23.99 0L82.22 327H83v10h9v-10h.44l-5.11-8.66zm127.97 0l-5.11 8.66h.81v10h9v-10h.41l-5.11-8.66zm24 0l-5.11 8.66H234v10h10v-10h.41l-5.11-8.66z"/><path class="cls-17" d="M114 330h66v34h-66zm9 34h6v24h-6zm37 0h6v24h-6zm-47-37h1v37h-1z"/><path class="cls-17" d="M113 363h67v1h-67z"/><path class="cls-5" d="M153 388v-13h-.8a6.84 6.84 0 0 0-13.63 0H138v13zm-34-12v-6h.47a3 3 0 0 0-6 0H113v6zm61 1v-7h.1a3 3 0 0 0-6 0h-.1v7z"/><path class="cls-17" d="M30 353h-3v-8h3zm5-8h-3v8h3zm-5 9h-3v9h3zm5 0h-3v9h3zm-5 21h-3v-8h3zm5-8h-3v8h3zm-5 9h-3v9h3zm5 0h-3v9h3zm12-23h-4v-8h4zm4-8h-4v8h4zm-4 9h-4v9h4zm4 0h-4v9h4zm-4 21h-4v-8h4zm4-8h-4v8h4zm-4 9h-4v9h4zm4 0h-4v9h4zm11-24h-3v-7h3zm4-7h-3v7h3zm-4 9h-3v8h3zm4 0h-3v8h3zm-4 21h-3v-8h3zm4-8h-3v8h3zm-4 9h-3v9h3zm4 0h-3v9h3zm12-24h-3v-7h3zm5-7h-4v7h4zm-5 9h-3v8h3zm5 0h-4v8h4zm-5 21h-3v-8h3zm5-8h-4v8h4zm-5 9h-3v9h3zm5 0h-4v9h4zm12-24h-3v-7h3zm5-7h-4v7h4zm-5 9h-3v8h3zm5 0h-4v8h4zm-5 21h-3v-8h3zm5-8h-4v8h4zm-5 9h-3v9h3zm5 0h-4v9h4zm95-23h-3v-8h3zm4-8h-4v8h4zm-4 9h-3v9h3zm4 0h-4v9h4zm-4 21h-3v-8h3zm4-8h-4v8h4zm-4 9h-3v9h3zm4 0h-4v9h4zm12-23h-4v-8h4zm4-8h-3v8h3zm-4 9h-4v9h4zm4 0h-3v9h3zm-4 21h-4v-8h4zm4-8h-3v8h3zm-4 9h-4v9h4zm4 0h-3v9h3zm11-24h-2v-7h2zm5-7h-4v7h4zm-5 9h-2v8h2zm5 0h-4v8h4zm-5 21h-2v-8h2zm5-8h-4v8h4zm-5 9h-2v9h2zm5 0h-4v9h4zm12-24h-4v-7h4zm3-7h-3v7h3zm-3 9h-4v8h4zm3 0h-3v8h3zm-3 21h-4v-8h4zm3-8h-3v8h3zm-3 9h-4v9h4zm3 0h-3v9h3zm14-24h-4v-7h4zm4-7h-4v7h4zm-4 9h-4v8h4zm4 0h-4v8h4zm-4 21h-4v-8h4zm4-8h-4v8h4zm-4 9h-4v9h4zm4 0h-4v9h4zm-116.51-62.63L105.3 331h82.49l-40.3-17.63zM62 329h3v4h-3zm24 0h3v4h-3zm127 0h4v4h-4zm25 0h4v4h-4z"/><circle class="cls-4" cx="151.62" cy="288.38" r="2.24"/><circle class="cls-4" cx="152.73" cy="292.36" r="1.13"/><path class="cls-6" d="M147.32 316.55L112.75 331h67.59l-33.02-14.45zM119 342h-2v-8h2zm5-8h-4v8h4zm-5 10h-2v8h2zm5 0h-4v8h4zm8-2h-3v-8h3zm4-8h-3v8h3zm-4 10h-3v8h3zm4 0h-3v8h3zm23-2h-4v-8h4zm4-8h-3v8h3zm-4 10h-4v8h4zm4 0h-3v8h3zm8-2h-3v-8h3zm4-8h-3v8h3zm-4 10h-3v8h3zm4 0h-3v8h3z"/><path class="cls-4" d="M143.92 342.45c-.26-.08-.53-.06-.62.28-.2.71.63 8.32.63 8.32l.54 13.67a2.12 2.12 0 0 0 .44.07 159.62 159.62 0 0 0-1-22.33"/><path class="cls-7" d="M144.47 342.72a2.1 2.1 0 0 0-.54-.28 159.78 159.78 0 0 1 1 22.33c.4 0 .94-.08 1-.74.08-1.07-1.44-21.32-1.44-21.32"/><path class="cls-18" d="M155.11 349.74c.1 3.84.11 7.88-.28 8.33-.75.9-10.88 2.06-11.61 1.9-.42-.09-.68-4.7-.79-8.9 4.08 1 8.64.14 12.68-1.34"/><path class="cls-19" d="M142.41 344.41a1.26 1.26 0 0 1 .27-.69 1.37 1.37 0 0 0 .21.38c-.63.89 11.95-1.59 11.95-1.59s.18 3.52.28 7.22c-4 1.48-8.6 2.36-12.68 1.34-.09-3.13-.09-6 0-6.67"/><path class="cls-20" d="M153.51 349.55c0-1.33 0-2.71-.13-4-.33-5.25 1.66-5.17 1.66-5.17 8.24-1.3 15.82 6.66 15.82 6.66l-2.38 7c-4-3.34-9.64-4.73-15-4.46"/><path class="cls-7" d="M153.51 349.55c5.32-.27 11 1.13 15 4.46l-2.4 7c-2.75-4.29-12.73-3.91-12.73-3.91s.2-3.58.17-7.59"/><circle class="cls-4" cx="143.94" cy="341.45" r="1.51"/><circle class="cls-7" cx="143.42" cy="340.93" r=".52"/></g><path class="cls-6" d="M407.75 354.58c-9.62 3.69-7.84 16.33-4.54 24.07v.23a.55.55 0 0 0 .25.39c.43.9 1.68.2 1.53-.66s-.31-1.51-.51-2.26a65.53 65.53 0 0 1 .9-10.06c.29-2.08.67-4.14 1.16-6.17.39-1.6 1.38-3 1.46-4.68h.07c.44-.3.17-1.04-.32-.86z"/><path class="cls-6" d="M408.59 352.8a18.37 18.37 0 0 0-4.27-6.06c-.4-.53-.86-1-1.26-1.49a4.13 4.13 0 0 0-.5-.49c-2.85-4.58-8.62-6-13.47-4.3a9.57 9.57 0 0 0-7.17 5.17.17.17 0 0 0 0 .19.18.18 0 0 0 0 .36l1.92.1a.59.59 0 0 0 .28.13 47.39 47.39 0 0 0 6.49.64c1.42.23 2.84.5 4.23.82a36.28 36.28 0 0 1 10.48 4.52h-2.12c-4.76-.64-9.67-.72-13.58 2.43-3.76 3-5 8.43-5.2 13a.27.27 0 0 0 .1.22c0 .12 0 .24-.05.36s-.05.16-.07.24a.64.64 0 0 0 1.16.49 27.19 27.19 0 0 1 10.12-10.81c1.55-1 3.05-2 4.61-2.83a14.69 14.69 0 0 1 6.62-2c.6.79 2.09.29 1.68-.69zm7.6-17.87c-2.94-.32-6.21.24-7.81 3-1.07 1.83-1 4.07-.57 6.33a19.54 19.54 0 0 0 .73 6c0 .19 0 .39-.05.58-.05.86 1.21.81 1.31 0v-.27a.81.81 0 0 0 .17-.63v-.24a29.28 29.28 0 0 1 6.14-13.45h.08a.63.63 0 0 0 0-1.32zm15.57 12.95c-2.06-3.38-6.59-4.95-10.39-4.92-4.2 0-8 4.14-9.92 7.65a3 3 0 0 0-.8.68.08.08 0 0 0 .06.13 11.64 11.64 0 0 0 3.46-.81c1.64-.45 3.3-.81 4.94-1.23 3.63-.94 7.73-2.18 11.33-.5a.58.58 0 0 0 .44 0c.53.25 1.27-.36.88-1zm-4.85 5.65c-3.72-3-9.62-.69-14-.59l-.76-.13a.24.24 0 0 0-.18.44c2.2 1.55 5.22 1.92 7.76 2.64 4 1.13 6.48 3 7.63 7.06a.61.61 0 0 0 .94.39 1 1 0 0 0 .72-.61c1.03-2.89.34-7.23-2.11-9.2z"/><path class="cls-21" d="M410.11 355.31c-.11-.11-.35 0-.29.17a71.32 71.32 0 0 1 4.27 14.29c0 2.32.54 4.68.66 7 .17 3.37.05 6.75 0 10.13a1.68 1.68 0 0 0 2.52 1.43 1.79 1.79 0 0 0 1.15.17c5.58-.96-5.21-30.06-8.31-33.19z"/><path class="cls-6" d="M800.38 370.54c5 1.9 4 8.41 2.33 12.39v.12a.29.29 0 0 1-.13.2c-.22.46-.87.1-.79-.34s.16-.78.26-1.16a33.5 33.5 0 0 0-.46-5.18c-.15-1.07-.35-2.13-.6-3.18a13.21 13.21 0 0 1-.75-2.41c-.24-.16-.11-.54.14-.44z"/><path class="cls-6" d="M799.94 369.62a9.49 9.49 0 0 1 2.2-3.12c.21-.27.44-.53.65-.77a2.22 2.22 0 0 1 .26-.25 5.87 5.87 0 0 1 6.94-2.22 4.93 4.93 0 0 1 3.69 2.66.09.09 0 0 1 0 .1.09.09 0 0 1 0 .18l-1 .05a.31.31 0 0 1-.15.06 24.48 24.48 0 0 1-3.34.33q-1.1.18-2.18.42a18.68 18.68 0 0 0-5.4 2.33h1.09c2.45-.33 5-.37 7 1.25s2.57 4.34 2.68 6.7a.14.14 0 0 1-.05.11v.31a.33.33 0 0 1-.6.25 14 14 0 0 0-5.21-5.56c-.79-.5-1.57-1-2.38-1.46a7.57 7.57 0 0 0-3.41-1c-.23.39-.99.13-.79-.37zm-3.94-9.2c1.52-.16 3.2.12 4 1.53a4.8 4.8 0 0 1 .29 3.26 10 10 0 0 1-.38 3.07v.3c0 .44-.62.42-.67 0v-.14a.41.41 0 0 1-.09-.32V368a15.06 15.06 0 0 0-3.17-6.93.32.32 0 0 1 .02-.65zm-8 6.67c1.06-1.74 3.39-2.55 5.35-2.54 2.16 0 4.14 2.13 5.11 3.94a1.55 1.55 0 0 1 .42.35v.07a6 6 0 0 1-1.78-.42c-.84-.23-1.7-.41-2.54-.64-1.87-.49-4-1.12-5.83-.25a.3.3 0 0 1-.22 0c-.31.13-.7-.18-.51-.51zm2.51 2.91c1.92-1.54 5-.36 7.21-.31l.39-.07a.12.12 0 0 1 .09.22 12.94 12.94 0 0 1-4 1.36c-2.06.58-3.34 1.52-3.93 3.64a.31.31 0 0 1-.48.2.5.5 0 0 1-.37-.31 4.62 4.62 0 0 1 1.09-4.73z"/><path class="cls-21" d="M799.16 370.91c.06-.06.18 0 .15.09a36.58 36.58 0 0 0-2.2 7.36c0 1.19-.28 2.41-.34 3.59-.09 1.74 0 3.48 0 5.21a.87.87 0 0 1-1.3.74.93.93 0 0 1-.59.08c-2.88-.47 2.69-15.45 4.28-17.07z"/><path class="cls-6" d="M673.27 356.43c.39-1.43 1.44-2.65 1.94-4a6.76 6.76 0 0 0-1.34-7.05C672.64 344 671.16 343 671 341s.38-4.05-.17-6.19c-1.37-5.36-8.33-6.69-12.49-4-3.79.61-4.47 6.2-3.88 9.66.56 3.24-3.22 4.85-3.63 8.08a9 9 0 0 0 .43 3.88c.48 1.53 1.46 2.93.63 4.5-1.25 2.39-2.67 4.7-2.12 7.53.61 3.19 3.15 5.25 6 6.47 5.5 2.32 14.2 1.7 18.27-3.13a6.28 6.28 0 0 0 .4-7.59c-.83-1.3-1.63-2.06-1.17-3.78z"/><path class="cls-5" d="M670.24 358.09c-.14-.52-1-.58-1.11 0a7.25 7.25 0 0 1-4.1 5.68 5.35 5.35 0 0 1-.72.28v-.54q0-3.33-.16-6.64a6.83 6.83 0 0 0 4.28-2.58 6 6 0 0 0 1.22-4.22.89.89 0 0 0-1.78 0 5.32 5.32 0 0 1-.95 2.7 5.82 5.82 0 0 1-2.86 2q-.11-2.74-.26-5.48-.17-3-.38-6a3.45 3.45 0 0 0 2.12-1.19 4.51 4.51 0 0 0 1.18-3.14.45.45 0 0 0-.88-.12 6.84 6.84 0 0 1-1.24 2.06 2.84 2.84 0 0 1-1.3.73c-.15-1.88-.21-4-1.32-5.55a.32.32 0 0 0-.55 0 10.46 10.46 0 0 0-.89 4.47 5.16 5.16 0 0 1-.56-.24 4.14 4.14 0 0 1-1.83-2c-.23-.5-.9-.19-.95.26a3.4 3.4 0 0 0 1.53 3 7.4 7.4 0 0 0 1.83 1c.07 1.59.21 3.16.2 4.51 0 2.11-.07 4.21-.12 6.31a4.52 4.52 0 0 1-2.71-1.84c-.86-1.22-.94-2.64-1.57-3.95a.26.26 0 0 0-.45 0c-1 1.61-.27 4 .79 5.41a6.39 6.39 0 0 0 3.89 2.4c0 2-.08 4-.08 5.94v2.36a4.09 4.09 0 0 1-3-2.27c-.77-1.37-.75-3.07-1.58-4.4a.45.45 0 0 0-.82.11 10.6 10.6 0 0 0 .92 5.88 5.59 5.59 0 0 0 4.49 3c0 3.26.13 6.51.32 9.77.12 2 .09 4 .14 6 0 1 .52 2.61.51 3.52a2.07 2.07 0 0 0 .36 2l.13.17c1 1.28 2.85.36 3.29-.87a5.68 5.68 0 0 0 0-2.39c-.18-2.13-.38-4.21-.39-6.35 0-3.84-.34-7.68-.5-11.52a7.84 7.84 0 0 0 4.21-2.59 6.24 6.24 0 0 0 1.65-5.68z"/><path class="cls-6" d="M453.2 373.55c.18-.65.66-1.2.88-1.84a3.08 3.08 0 0 0-.61-3.21c-.56-.62-1.23-1.06-1.29-2a13.81 13.81 0 0 0-.08-2.81c-.62-2.44-3.79-3-5.68-1.81-1.72.28-2 2.82-1.76 4.39s-1.46 2.21-1.65 3.67a4.06 4.06 0 0 0 .2 1.77c.22.69.66 1.33.29 2-.57 1.09-1.21 2.13-1 3.42a4.2 4.2 0 0 0 2.74 2.94c2.5 1.06 6.46.77 8.3-1.42a2.86 2.86 0 0 0 .18-3.45c-.37-.52-.72-.87-.52-1.65z"/><path class="cls-5" d="M451.82 374.3c-.06-.24-.46-.26-.5 0a3.29 3.29 0 0 1-1.86 2.58 2.55 2.55 0 0 1-.33.13v-.25q0-1.51-.08-3a3.11 3.11 0 0 0 1.95-1.17 2.72 2.72 0 0 0 .55-1.92.4.4 0 0 0-.81 0 2.44 2.44 0 0 1-.43 1.23 2.65 2.65 0 0 1-1.3.89c0-.83-.07-1.66-.12-2.49s-.11-1.83-.17-2.74a1.57 1.57 0 0 0 1-.54 2.05 2.05 0 0 0 .53-1.43.2.2 0 0 0-.4-.05 3.16 3.16 0 0 1-.56.94 1.3 1.3 0 0 1-.59.33 5 5 0 0 0-.6-2.52.15.15 0 0 0-.25 0 4.78 4.78 0 0 0-.4 2l-.25-.11a1.88 1.88 0 0 1-.83-.93c-.11-.23-.41-.09-.43.12a1.54 1.54 0 0 0 .7 1.38 3.37 3.37 0 0 0 .83.47c0 .72.09 1.44.09 2.05 0 1 0 1.91-.05 2.87a2.06 2.06 0 0 1-1.23-.83 11.52 11.52 0 0 1-.71-1.79.12.12 0 0 0-.2 0 2.36 2.36 0 0 0 .36 2.46 2.91 2.91 0 0 0 1.77 1.09v3.77a1.86 1.86 0 0 1-1.36-1c-.35-.62-.34-1.4-.72-2a.21.21 0 0 0-.37 0 4.8 4.8 0 0 0 .42 2.67 2.54 2.54 0 0 0 2 1.36c0 1.48.06 3 .15 4.44.05.9 0 1.81.06 2.71 0 .44.24 1.19.23 1.6a.94.94 0 0 0 .16.91l.06.08c.45.58 1.3.16 1.5-.39a2.57 2.57 0 0 0 0-1.09c-.08-1-.17-1.91-.18-2.89 0-1.74-.16-3.49-.23-5.24a3.56 3.56 0 0 0 1.91-1.18 2.83 2.83 0 0 0 .69-2.52z"/><g id="wisma"><g class="cls-22"><path class="cls-12" d="M424 114h352v299H424z"/><path class="cls-5" d="M424 140h352v13H424z"/><path class="cls-9" d="M424 163h352v13H424z"/><path class="cls-5" d="M424 187h352v13H424z"/><path class="cls-9" d="M424 210h352v13H424zm0 24h352v13H424z"/><path class="cls-5" d="M424 257h352v13H424zm0 24h352v13H424zm0 23h352v13H424zm0 24h352v13H424zm0 23h352v13H424zm0 24h352v13H424z"/><path class="cls-7" d="M424 398h352v13H424z"/></g><path class="cls-23" d="M562 223h4v165h-4z"/><ellipse class="cls-7" cx="611.9" cy="146.57" rx="4.56" ry="3.65"/><path class="cls-24" d="M619 160.06s8 10.52 7.66 53.25"/><path class="cls-17" d="M565 223h81v165h-81z"/><path class="cls-9" d="M646 223v165h-81"/><path class="cls-4" d="M569 230h77v8h-77zm0 16h77v7h-77zm0 16h77v8h-77zm0 15h77v8h-77zm0 17h77v8h-77zm0 15h77v8h-77zm0 17h77v7h-77zm0 15h77v8h-77zm0 15h77v8h-77zm0 16h77v7h-77z"/><path class="cls-6" d="M544.09 173.55L544 74c0 30.64 44.62 56.39 44.62 56.39-42.17 3.49-44.53 43.16-44.53 43.16zm1.8-72l7.2 1.27-7.75-11.85zm0 2l4.92 9 2.28-7.75zm7.2 10.76s11.12 1.64 9.94 1.28-8.3-9.39-8.3-9.39zm11.91 2.8l-10.67-.73 10.67 8.76zm2.66 9.21l10.87-.09-11.31-8.48z"/></g></g><g id="road"><path class="cls-12" d="M0 427.25h1045v37.69H0z"/><path class="cls-17" d="M0 416h1045v11.75H0z"/><path class="cls-12" d="M0 412.04h1045v11.75H0z"/><path class="cls-25" d="M0 394.75h1045v17.99H0z"/><path class="cls-6" d="M0 463.57h1045v7.98H0z"/><path class="cls-26" d="M0 467.25h1045V479H0z"/><path class="cls-9" d="M0 470.13h1045v30.12H0z"/><path id="Ground" class="cls-17" d="M0 387.61h1045v7.87H0z"/></g><path id="cloud-4" class="cls-7" d="M870 52.48a27 27 0 0 0-3 .17l-.9.1-.64-.64a27 27 0 0 0-26-7l-1.6.42-.62-1.53a27 27 0 0 0-51.94 7.3l-.14 1.41-1.4.25a27 27 0 0 0 4.75 53.62H870a27 27 0 0 0 0-54zm-55.1-2"/><path id="cloud-3" class="cls-7" d="M672 57.19a18.21 18.21 0 1 0-35-9.81 12.12 12.12 0 0 0-19 10v.19a15.42 15.42 0 0 0-17.3 9 10.66 10.66 0 0 0-1.11-.06 10.4 10.4 0 0 0-7.22 17.89l.33.29c.08.07.16.35.24.42a12.49 12.49 0 0 0 6.27 2.89h66.27A16.14 16.14 0 0 0 672 57.19z"/><path id="cloud-2" class="cls-7" d="M482 35.42a6.72 6.72 0 0 0-3.09.75v-.15a8.27 8.27 0 0 0-15.31-4.33 11.81 11.81 0 0 0-6.6-.41l-.45.1-.22-.4a11.86 11.86 0 0 0-13.73-5.66l-.49.14-.23-.45A12.11 12.11 0 0 0 419 30.37v.55l-.37.13A11.89 11.89 0 0 0 408.07 43a12.08 12.08 0 0 0 12 12h39.49a11.07 11.07 0 0 0 10.27-6H482a6.79 6.79 0 0 0 0-13.58z"/><path id="cloud-1" class="cls-7" d="M165.05 146.7a12 12 0 0 0-5.52 1.34v-.27a14.78 14.78 0 0 0-29.55-.48 12 12 0 0 0 3.72 23.48h31.34a12 12 0 0 0 0-24.07zm6.5-25.1"/></g></g></svg>